<svg xmlns="http://www.w3.org/2000/svg" x="0px" y="0px"
     width="24" height="24"
     viewBox="0 0 16 16"
     style=" fill:#000000;"><path d="M 3 1 L 3 2 L 2.5 2 C 1.675781 2 1 2.675781 1 3.5 L 1 12.5 C 1 13.324219 1.675781 14 2.5 14 L 12.5 14 C 13.324219 14 14 13.324219 14 12.5 L 14 3.5 C 14 2.675781 13.324219 2 12.5 2 L 12 2 L 12 1 L 11 1 L 11 2 L 4 2 L 4 1 Z M 2.5 3 L 3 3 L 3 4 L 4 4 L 4 3 L 11 3 L 11 4 L 12 4 L 12 3 L 12.5 3 C 12.78125 3 13 3.21875 13 3.5 L 13 5 L 2 5 L 2 3.5 C 2 3.21875 2.21875 3 2.5 3 Z M 2 6 L 13 6 L 13 12.5 C 13 12.78125 12.78125 13 12.5 13 L 2.5 13 C 2.21875 13 2 12.78125 2 12.5 Z M 5 7 L 5 8 L 6 8 L 6 7 Z M 7 7 L 7 8 L 8 8 L 8 7 Z M 9 7 L 9 8 L 10 8 L 10 7 Z M 11 7 L 11 8 L 12 8 L 12 7 Z M 3 9 L 3 10 L 4 10 L 4 9 Z M 5 9 L 5 10 L 6 10 L 6 9 Z M 7 9 L 7 10 L 8 10 L 8 9 Z M 9 9 L 9 10 L 10 10 L 10 9 Z M 11 9 L 11 10 L 12 10 L 12 9 Z M 3 11 L 3 12 L 4 12 L 4 11 Z M 5 11 L 5 12 L 6 12 L 6 11 Z M 7 11 L 7 12 L 8 12 L 8 11 Z"></path></svg>