<svg id="Capa_1" enable-background="new 0 0 514.735 514.735" height="512" viewBox="0 0 514.735 514.735" width="512" xmlns="http://www.w3.org/2000/svg"><g><path d="m121.699 301.271c0 14.103 12.948 25.576 28.863 25.576s28.863-11.474 28.863-25.576c0-14.104-12.948-25.577-28.863-25.577s-28.863 11.474-28.863 25.577zm28.863-10.577c7.515 0 13.863 4.844 13.863 10.577 0 5.732-6.349 10.576-13.863 10.576s-13.863-4.844-13.863-10.576c0-5.733 6.349-10.577 13.863-10.577z"/><path d="m302.188 380.23c18.476 0 33.507-13.235 33.507-29.505s-15.031-29.506-33.507-29.506-33.506 13.236-33.506 29.506 15.031 29.505 33.506 29.505zm0-44.011c10.205 0 18.507 6.507 18.507 14.506 0 7.998-8.302 14.505-18.507 14.505-10.204 0-18.506-6.507-18.506-14.505 0-7.999 8.302-14.506 18.506-14.506z"/><path d="m228.955 147.874c-4.143 0-7.5 3.357-7.5 7.5s3.357 7.5 7.5 7.5h8.138c4.143 0 7.5-3.357 7.5-7.5s-3.357-7.5-7.5-7.5z"/><path d="m154.631 213.573c4.143 0 7.5-3.357 7.5-7.5s-3.357-7.5-7.5-7.5h-8.137c-4.143 0-7.5 3.357-7.5 7.5s3.357 7.5 7.5 7.5z"/><path d="m357.985 290.694c4.143 0 7.5-3.357 7.5-7.5s-3.357-7.5-7.5-7.5h-8.137c-4.143 0-7.5 3.357-7.5 7.5s3.357 7.5 7.5 7.5z"/><path d="m490.905 213.111c-14.126-4.06-28.29 1.368-36.088 13.823l-4.95 7.905-10.396 1.18c-.955-8.184-2.467-16.254-4.498-24.17l18.789-23.792c2.785-3.527 3.565-8.166 2.088-12.41-1.479-4.242-4.971-7.393-9.343-8.426l-34.489-8.154c-2.115-3.308-4.339-6.556-6.674-9.737l44.757-44.757 2.701 2.701c1.465 1.464 3.385 2.196 5.304 2.196s3.839-.732 5.304-2.196c2.929-2.93 2.929-7.678 0-10.607l-7.787-7.787 31.266-31.267 17.105-1.253c4.059-.297 7.6-2.953 9.019-6.768 1.42-3.815.479-8.141-2.4-11.021l-35.519-35.519c-2.879-2.877-7.204-3.819-11.019-2.401-3.815 1.419-6.473 4.96-6.77 9.02l-1.253 17.105-31.267 31.266-7.787-7.787c-2.93-2.928-7.678-2.928-10.607 0-2.929 2.93-2.929 7.678 0 10.607l2.247 2.247-45.089 45.089c-2.839-2.015-5.735-3.931-8.672-5.773l-2.865-30.295c-.423-4.474-3.062-8.366-7.063-10.414-3.999-2.048-8.702-1.911-12.577.362l-30.417 17.846c-7.81-1.937-15.764-3.368-23.82-4.259l1.279-11.279 7.905-4.95c11.676-7.311 17.203-20.192 14.427-33.62-2.765-13.362-13.086-23.299-26.297-25.316-4.092-.623-7.921 2.188-8.546 6.282s2.188 7.921 6.282 8.546c8.431 1.287 12.692 7.831 13.87 13.525 1.496 7.234-1.382 13.914-7.698 17.869l-10.97 6.869c-1.937 1.212-3.214 3.241-3.472 5.511l-2.075 18.295c-.35 3.083.573 6.231 2.532 8.637 1.981 2.434 4.791 3.932 7.915 4.218 28.577 2.607 55.865 12.519 79.468 28.739l-36.538 36.538c-2.929 2.93-2.929 7.678 0 10.607 1.465 1.464 3.385 2.196 5.304 2.196s3.839-.732 5.304-2.196l92.419-92.419 20.25 20.25-27.747 27.748-7.623-7.623c-2.93-2.928-7.678-2.928-10.607 0-2.929 2.93-2.929 7.678 0 10.607l7.623 7.623-18.969 18.969-7.623-7.623c-2.93-2.928-7.678-2.928-10.607 0-2.929 2.93-2.929 7.678 0 10.607l7.623 7.623-18.969 18.969-7.623-7.623c-2.928-2.928-7.677-2.929-10.606.001-2.929 2.929-2.929 7.678.001 10.606l7.622 7.622-18.969 18.97-7.623-7.623c-2.93-2.928-7.678-2.928-10.607 0-2.929 2.93-2.929 7.678 0 10.607l7.623 7.623-15.319 15.319-16.876-3.375-3.375-16.875 27.384-27.383c2.929-2.93 2.929-7.678 0-10.607-2.93-2.928-7.678-2.928-10.607 0l-27.687 27.687c-3.364 3.365-4.816 8.16-3.883 12.825l3.652 18.263-42.979 42.979c-2.929 2.93-2.929 7.678 0 10.607 1.465 1.464 3.385 2.196 5.304 2.196s3.839-.732 5.304-2.196l42.98-42.98 18.261 3.652c.932.187 1.868.277 2.798.277 3.726 0 7.335-1.468 10.028-4.16l87.192-87.192c17.02 23.86 27.479 51.629 30.324 80.844.302 3.107 1.807 5.901 4.235 7.867 2.438 1.973 5.498 2.867 8.613 2.512l17.39-1.973c2.27-.258 4.299-1.535 5.511-3.472l6.869-10.97c5.045-8.056 13.247-9.085 19.233-7.367 5.99 1.721 12.391 6.946 12.391 16.451v25.876c0 9.505-6.4 14.73-12.391 16.451-5.991 1.719-14.188.689-19.233-7.367l-6.869-10.971c-1.212-1.937-3.241-3.215-5.512-3.472l-17.304-1.962c-3.078-.347-6.229.573-8.637 2.531-2.434 1.981-3.931 4.79-4.217 7.909-3.049 33.19-15.808 64.429-36.896 90.337-3.759 4.616-3.41 11.28.812 15.503l15.638 15.638c1.688 1.688 4.073 2.468 6.438 2.11 5.342-.815 10.591.899 14.399 4.709 3.364 3.363 5.144 8.021 4.882 12.775-.265 4.818-2.513 9.155-6.327 12.212-5.977 4.786-14.676 4.825-20.686.091-4.854-3.824-7.198-9.726-6.27-15.786.36-2.359-.423-4.75-2.111-6.438l-15.637-15.637c-4.223-4.221-10.887-4.57-15.502-.812-25.688 20.909-56.643 33.644-89.517 36.826-3.107.301-5.903 1.805-7.871 4.234-1.975 2.438-2.867 5.497-2.514 8.614l2.085 18.381c.258 2.27 1.535 4.299 3.472 5.511l10.97 6.869c8.057 5.045 9.088 13.242 7.367 19.232s-6.945 12.391-16.451 12.391h-25.875c-9.506 0-14.73-6.4-16.451-12.391s-.689-14.188 7.367-19.232l10.97-6.869c1.937-1.212 3.214-3.241 3.472-5.511l2.075-18.295c.35-3.084-.574-6.233-2.534-8.64-1.981-2.434-4.792-3.931-7.913-4.215-33.232-3.031-64.507-15.794-90.444-36.907-4.616-3.759-11.281-3.405-15.501.813l-15.638 15.637c-1.688 1.688-2.473 4.079-2.111 6.439.818 5.341-.897 10.589-4.708 14.398-3.363 3.364-8.021 5.138-12.775 4.882-4.818-.265-9.155-2.513-12.212-6.328-4.787-5.976-4.825-14.674-.091-20.685 3.823-4.854 9.722-7.198 15.785-6.27 2.36.356 4.751-.423 6.438-2.11l15.638-15.638c4.219-4.22 4.569-10.884.812-15.503-20.91-25.687-33.645-56.641-36.827-89.516-.301-3.107-1.804-5.903-4.233-7.87-2.437-1.974-5.491-2.866-8.614-2.514l-18.38 2.084c-2.271.257-4.3 1.535-5.512 3.472l-6.869 10.971c-4.896 7.82-12.88 9-18.717 7.499-5.881-1.512-12.346-6.368-12.855-15.462-.231-4.136-3.779-7.29-7.908-7.068-4.136.231-7.3 3.772-7.068 7.908.793 14.147 10.251 25.589 24.096 29.149 13.792 3.549 27.595-1.974 35.166-14.065l4.95-7.906 11.384-1.291c.683 5.888 1.664 11.711 2.904 17.463l-17.956 28.438c-2.399 3.799-2.688 8.493-.774 12.559 1.916 4.064 5.72 6.831 10.178 7.399l28.534 3.642c4.413 7.695 9.386 15.105 14.933 22.156l-11.022 11.022c-9.969-.233-19.593 4.209-25.863 12.168-9.007 11.434-8.937 27.981.167 39.346 5.675 7.084 14.093 11.431 23.095 11.927 9.007.497 17.831-2.877 24.206-9.252 6.172-6.171 9.502-14.658 9.282-23.302l11.023-11.022c4.999 3.932 10.174 7.583 15.503 10.948l7.619 32.67c1.02 4.375 4.159 7.878 8.397 9.368 1.427.502 2.898.748 4.359.748 2.878 0 5.711-.957 8.056-2.797l22.71-17.822c8.498 2.214 17.18 3.834 26 4.808l-1.279 11.279-7.905 4.95c-12.454 7.798-17.881 21.963-13.823 36.086 4.057 14.124 16.173 23.25 30.868 23.25h25.875c14.695 0 26.812-9.126 30.868-23.25 4.058-14.123-1.369-28.288-13.823-36.086l-7.905-4.95-1.292-11.385c8.74-1.014 17.343-2.663 25.764-4.897l22.958 18.017c2.346 1.84 5.178 2.797 8.056 2.797 1.46 0 2.933-.246 4.359-.748 4.238-1.49 7.378-4.993 8.397-9.368l7.798-33.44c4.912-3.155 9.698-6.539 14.325-10.177l11.022 11.021c-.253 9.948 4.208 19.594 12.169 25.864 11.431 9.005 27.978 8.936 39.345-.167 7.084-5.675 11.431-14.093 11.927-23.095.496-9.008-2.877-17.831-9.252-24.206-6.171-6.172-14.645-9.498-23.302-9.283l-11.022-11.022c5.515-7.011 10.465-14.375 14.859-22.02l29.608-3.778c4.458-.568 8.262-3.335 10.178-7.399 1.914-4.065 1.625-8.76-.773-12.558l-18.713-29.637c1.177-5.648 2.111-11.363 2.752-17.141l10.291 1.167 4.95 7.906c7.799 12.455 21.965 17.878 36.088 13.823 14.123-4.058 23.249-16.174 23.249-30.868v-25.876c-.005-14.691-9.131-26.808-23.254-30.865zm-153.544-136.57 1.606 16.981c-5.732-2.842-11.601-5.382-17.591-7.603zm131.272-41.131c1.272-1.273 2.045-2.961 2.177-4.756l.728-9.944 21.419 21.419-9.945.729c-1.795.131-3.482.903-4.756 2.176l-33.239 33.239-9.623-9.623zm-28.51 145.716-10.552 13.362c-2.202-6.006-4.716-11.893-7.542-17.64zm-364.695 148.938 9.037-14.313c1.858 5.528 3.988 10.957 6.37 16.28zm106.51 108.459-3.848-16.501c5.257 2.552 10.625 4.857 16.098 6.888zm152.795 0-12.574-9.868c5.629-2.115 11.151-4.505 16.548-7.172zm106.511-108.459-16.46 2.101c2.554-5.697 4.814-11.519 6.768-17.45z"/><path d="m7.124 247.814c4.092.707 7.964-2.025 8.672-6.107 1.44-8.305 8.253-12.488 13.648-13.548 7.17-1.407 13.783 1.485 17.697 7.736l6.869 10.97c1.212 1.937 3.241 3.214 5.511 3.472l18.294 2.075c.429.049.859.072 1.288.072 2.657 0 5.279-.919 7.352-2.606 2.434-1.981 3.931-4.792 4.215-7.913 3.031-33.23 15.794-64.506 36.907-90.444 3.758-4.616 3.408-11.28-.813-15.502l-15.638-15.637c-1.688-1.688-4.077-2.472-6.438-2.11-5.341.819-10.589-.898-14.4-4.709-3.363-3.363-5.143-8.02-4.881-12.774.265-4.818 2.513-9.155 6.328-12.212 5.975-4.787 14.674-4.827 20.684-.092 4.854 3.824 7.198 9.725 6.271 15.785-.36 2.359.423 4.75 2.11 6.438l15.64 15.641c4.223 4.222 10.888 4.568 15.5.811 25.688-20.909 56.643-33.644 89.517-36.826 3.107-.301 5.903-1.804 7.871-4.233 1.975-2.438 2.867-5.497 2.514-8.616l-2.085-18.38c-.258-2.27-1.535-4.299-3.472-5.511l-10.97-6.869c-7.747-4.852-8.976-12.771-7.543-18.564 1.446-5.845 6.183-12.328 15.141-12.996 4.131-.309 7.229-3.907 6.922-8.037-.308-4.131-3.91-7.223-8.037-6.922-13.964 1.042-25.185 10.601-28.586 24.354-3.387 13.688 2.165 27.379 14.143 34.879l7.905 4.95 1.292 11.385c-7.485.868-14.866 2.217-22.123 3.983l-30.126-17.675c-3.875-2.273-8.578-2.408-12.577-.362-4.001 2.048-6.641 5.94-7.063 10.413l-2.801 29.619c-5.844 3.614-11.516 7.551-16.968 11.839l-11.022-11.022c.253-9.948-4.208-19.593-12.168-25.863-11.434-9.008-27.979-8.938-39.346.168-7.084 5.676-11.432 14.093-11.927 23.095-.496 9.008 2.877 17.831 9.252 24.206 6.173 6.172 14.679 9.501 23.302 9.282l11.022 11.021c-3.776 4.8-7.282 9.768-10.535 14.873l-33.306 7.875c-4.373 1.033-7.865 4.184-9.344 8.426-1.478 4.244-.697 8.883 2.088 12.41l18.041 22.844c-2.243 8.567-3.885 17.321-4.867 26.218l-11.278-1.279-4.95-7.905c-7.233-11.553-19.991-17.104-33.3-14.494-13.257 2.603-23.281 12.691-25.538 25.702-.71 4.076 2.025 7.958 6.106 8.666zm172.186-171.273 15.574 9.137c-5.829 2.136-11.543 4.572-17.127 7.297zm-102.761 104.585 16.941-4.006c-2.634 5.379-4.998 10.88-7.084 16.487z"/></g></svg>