<svg id="Capa_1" enable-background="new 0 0 514.895 514.895" height="512" viewBox="0 0 514.895 514.895" width="512" xmlns="http://www.w3.org/2000/svg"><g><path d="m349.664 186.674-9.305-2.331c-54.568-13.668-112.254-13.668-166.823 0l-9.305 2.331c-4.018 1.007-6.459 5.08-5.453 9.098 1.007 4.019 5.082 6.462 9.098 5.453l9.304-2.331c52.185-13.07 107.35-13.072 159.533 0l9.305 2.331c.612.153 1.225.227 1.829.227 3.359 0 6.416-2.273 7.27-5.68 1.006-4.018-1.436-8.091-5.453-9.098z"/><path d="m340.358 340.768 9.305-2.33c4.018-1.006 6.46-5.079 5.454-9.098s-5.08-6.461-9.097-5.453l-9.305 2.33c-52.184 13.07-107.349 13.07-159.534 0l-9.305-2.33c-4.012-1.004-8.091 1.436-9.097 5.453-1.006 4.019 1.436 8.092 5.454 9.098l9.304 2.33c27.287 6.835 55.344 10.251 83.411 10.251 28.059 0 56.13-3.418 83.41-10.251z"/><path d="m148.859 262.556c0 4.143 3.358 7.5 7.5 7.5h202.075c4.142 0 7.5-3.357 7.5-7.5s-3.358-7.5-7.5-7.5h-202.075c-4.142 0-7.5 3.357-7.5 7.5z"/><path d="m510.204 205.844c-10.51-27.972-35.602-45.348-65.483-45.348h-13.215c-2.427-2.873-5.869-4.831-9.713-5.337l-39.343-5.186c-10.506-1.385-20.611-4.544-30.034-9.39l-15.772-8.11c-33.909-17.438-73.246-23.212-110.767-16.255-4.072.755-6.762 4.668-6.007 8.741.755 4.072 4.675 6.763 8.741 6.007 34.272-6.353 70.202-1.081 101.174 14.847l15.772 8.11c10.96 5.637 22.714 9.311 34.934 10.921l39.345 5.186c.127.018.235.107.274.231l2.112 6.668c3.938 12.433 6.8 25.291 8.507 38.217.499 3.773 3.721 6.52 7.426 6.52.327 0 .658-.021.991-.065 4.106-.542 6.996-4.311 6.454-8.417-1.681-12.727-4.423-25.385-8.135-37.688h7.258c28.059 0 44.97 18.402 51.441 35.624s5.862 42.208-15.254 60.685l-42.047 36.792c5.669-20.254 8.612-41.149 8.771-62.414.031-4.142-3.302-7.524-7.444-7.556-.02 0-.038 0-.057 0-4.116 0-7.468 3.321-7.499 7.444-.216 28.954-5.938 57.179-17.006 83.889l-11.324 27.324c-.035.083-.103.15-.188.183l-8.736 3.373c-67.535 26.073-140.806 32.464-211.895 18.482-4.061-.796-8.006 1.848-8.806 5.912-.799 4.064 1.847 8.007 5.912 8.807 25.501 5.016 51.261 7.508 76.965 7.508 48.753 0 97.274-8.974 143.227-26.715l8.735-3.373c3.896-1.503 7.046-4.577 8.645-8.435l10.652-25.705 61.974-54.228c22.484-19.677 29.925-49.277 19.415-77.249z"/><path d="m152.134 371.796c-11.308-3.233-22.572-7.021-33.48-11.262l-7.868-3.057c-.085-.033-.153-.1-.188-.185l-11.329-27.332c-20.126-48.566-22.468-102.914-6.595-153.03l2.113-6.669c.039-.123.146-.213.275-.23l39.343-5.186c12.22-1.61 23.973-5.284 34.934-10.921l15.772-8.11c4.45-2.289 9.142-4.417 13.946-6.325 3.85-1.529 5.73-5.89 4.201-9.739s-5.89-5.732-9.739-4.2c-5.251 2.086-10.388 4.416-15.267 6.925l-15.772 8.11c-9.423 4.846-19.528 8.005-30.034 9.39l-39.341 5.186c-3.846.506-7.289 2.464-9.715 5.337h-13.216c-29.881 0-54.973 17.376-65.483 45.348s-3.07 57.572 19.418 77.25l61.974 54.228 10.656 25.712c1.593 3.846 4.731 6.916 8.613 8.425l7.869 3.057c11.335 4.406 23.041 8.343 34.791 11.702.689.197 1.383.291 2.065.291 3.263 0 6.266-2.146 7.207-5.44 1.138-3.985-1.168-8.136-5.15-9.275zm-133.402-160.676c6.471-17.222 23.383-35.624 51.441-35.624h7.258c-13.111 43.447-13.481 89.714-1.353 133.139l-42.091-36.83c-21.116-18.477-21.726-43.463-15.255-60.685z"/></g></svg>